<?xml version="1.0" standalone="no"?>
<svg viewBox="0 0 200 200" xmlns="http://www.w3.org/2000/svg">
  <path fill="#8A3FFC" d="M42.1,-71.7C55.2,-65.3,67,-55.4,74,-42.9C80.9,-30.3,83.1,-15.2,82,-0.7C80.8,13.9,76.4,27.7,70.5,42.1C64.6,56.4,57.2,71.3,45.2,79.5C33.2,87.6,16.6,89,0.7,87.8C-15.2,86.7,-30.5,82.9,-44.6,76C-58.7,69.1,-71.7,59,-78.2,45.8C-84.7,32.6,-84.6,16.3,-83.5,0.6C-82.4,-15.1,-80.3,-30.1,-72.5,-41C-64.7,-51.9,-51.2,-58.6,-38.2,-65C-25.1,-71.5,-12.6,-77.6,1,-79.3C14.5,-80.9,29,-78.1,42.1,-71.7Z" transform="translate(100 100)" />
</svg>
